<svg width="60" height="60" viewBox="0 0 60 60" fill="none" xmlns="http://www.w3.org/2000/svg">
<circle cx="30" cy="30" r="30" fill="white"/>
<path fill-rule="evenodd" clip-rule="evenodd" d="M37.8456 23.5944C37.8456 24.3896 37.2009 25.0344 36.4056 25.0344C35.6103 25.0344 34.9655 24.3896 34.9655 23.5944C34.9655 22.7991 35.6103 22.1544 36.4056 22.1544C37.2009 22.1544 37.8456 22.7991 37.8456 23.5944ZM30.0001 34C27.7909 34 26 32.2091 26 30C26 27.7909 27.7909 26 30.0001 26C32.2092 26 34.0001 27.7909 34.0001 30C34.0001 32.2091 32.2092 34 30.0001 34ZM29.9999 23.8378C26.5967 23.8378 23.8377 26.5967 23.8377 30C23.8377 33.4032 26.5967 36.1622 29.9999 36.1622C33.4031 36.1622 36.1621 33.4032 36.1621 30C36.1621 26.5967 33.4031 23.8378 29.9999 23.8378ZM30 18C26.741 18 26.3324 18.0138 25.0524 18.0722C23.7752 18.1305 22.9028 18.3333 22.1395 18.63C21.3504 18.9367 20.6813 19.347 20.0141 20.0141C19.347 20.6812 18.9367 21.3503 18.63 22.1395C18.3334 22.9028 18.1305 23.7751 18.0722 25.0524C18.0138 26.3323 18 26.741 18 30C18 33.259 18.0138 33.6677 18.0722 34.9476C18.1305 36.2248 18.3334 37.0972 18.63 37.8605C18.9367 38.6495 19.347 39.3188 20.0141 39.9859C20.6813 40.653 21.3504 41.0633 22.1395 41.37C22.9028 41.6667 23.7752 41.8695 25.0524 41.9278C26.3324 41.9862 26.741 42 30 42C33.259 42 33.6678 41.9862 34.9476 41.9278C36.2249 41.8695 37.0972 41.6667 37.8605 41.37C38.6496 41.0633 39.3188 40.653 39.986 39.9859C40.653 39.3188 41.0633 38.6496 41.3701 37.8605C41.6667 37.0972 41.8695 36.2248 41.9278 34.9476C41.9862 33.6677 42 33.259 42 30C42 26.741 41.9862 26.3323 41.9278 25.0524C41.8695 23.7751 41.6667 22.9028 41.3701 22.1395C41.0633 21.3503 40.653 20.6812 39.986 20.0141C39.3188 19.347 38.6496 18.9367 37.8605 18.63C37.0972 18.3333 36.2249 18.1305 34.9476 18.0722C33.6678 18.0138 33.259 18 30 18ZM30 20.1622C33.2042 20.1622 33.5837 20.1744 34.849 20.2321C36.019 20.2855 36.6544 20.481 37.0774 20.6453C37.6373 20.8629 38.0372 21.1231 38.457 21.5429C38.877 21.9628 39.1369 22.3627 39.3547 22.9227C39.5191 23.3456 39.7145 23.9811 39.7679 25.151C39.8256 26.4163 39.8378 26.7958 39.8378 30C39.8378 33.2041 39.8256 33.5836 39.7679 34.849C39.7145 36.019 39.5191 36.6544 39.3547 37.0773C39.1369 37.6374 38.877 38.0371 38.457 38.4571C38.0372 38.8769 37.6373 39.1371 37.0774 39.3547C36.6544 39.519 36.019 39.7145 34.849 39.7679C33.5839 39.8256 33.2044 39.8378 30 39.8378C26.7957 39.8378 26.4161 39.8256 25.1509 39.7679C23.981 39.7145 23.3456 39.519 22.9228 39.3547C22.3626 39.1371 21.9628 38.8769 21.5429 38.4571C21.1231 38.0371 20.863 37.6374 20.6453 37.0773C20.481 36.6544 20.2855 36.019 20.2322 34.849C20.1743 33.5836 20.1621 33.2041 20.1621 30C20.1621 26.7958 20.1743 26.4163 20.2322 25.151C20.2855 23.9811 20.481 23.3456 20.6453 22.9227C20.863 22.3627 21.1231 21.9628 21.5429 21.5429C21.9628 21.1231 22.3626 20.8629 22.9228 20.6453C23.3456 20.481 23.981 20.2855 25.1509 20.2321C26.4163 20.1744 26.7959 20.1622 30 20.1622Z" fill="#DBDBDB"/>
<mask id="mask0_0_19" style="mask-type:luminance" maskUnits="userSpaceOnUse" x="18" y="18" width="24" height="24">
<path fill-rule="evenodd" clip-rule="evenodd" d="M37.8456 23.5944C37.8456 24.3896 37.2009 25.0344 36.4056 25.0344C35.6103 25.0344 34.9655 24.3896 34.9655 23.5944C34.9655 22.7991 35.6103 22.1544 36.4056 22.1544C37.2009 22.1544 37.8456 22.7991 37.8456 23.5944ZM30.0001 34C27.7909 34 26 32.2091 26 30C26 27.7909 27.7909 26 30.0001 26C32.2092 26 34.0001 27.7909 34.0001 30C34.0001 32.2091 32.2092 34 30.0001 34ZM29.9999 23.8378C26.5967 23.8378 23.8377 26.5967 23.8377 30C23.8377 33.4032 26.5967 36.1622 29.9999 36.1622C33.4031 36.1622 36.1621 33.4032 36.1621 30C36.1621 26.5967 33.4031 23.8378 29.9999 23.8378ZM30 18C26.741 18 26.3324 18.0138 25.0524 18.0722C23.7752 18.1305 22.9028 18.3333 22.1395 18.63C21.3504 18.9367 20.6813 19.347 20.0141 20.0141C19.347 20.6812 18.9367 21.3503 18.63 22.1395C18.3334 22.9028 18.1305 23.7751 18.0722 25.0524C18.0138 26.3323 18 26.741 18 30C18 33.259 18.0138 33.6677 18.0722 34.9476C18.1305 36.2248 18.3334 37.0972 18.63 37.8605C18.9367 38.6495 19.347 39.3188 20.0141 39.9859C20.6813 40.653 21.3504 41.0633 22.1395 41.37C22.9028 41.6667 23.7752 41.8695 25.0524 41.9278C26.3324 41.9862 26.741 42 30 42C33.259 42 33.6678 41.9862 34.9476 41.9278C36.2249 41.8695 37.0972 41.6667 37.8605 41.37C38.6496 41.0633 39.3188 40.653 39.986 39.9859C40.653 39.3188 41.0633 38.6496 41.3701 37.8605C41.6667 37.0972 41.8695 36.2248 41.9278 34.9476C41.9862 33.6677 42 33.259 42 30C42 26.741 41.9862 26.3323 41.9278 25.0524C41.8695 23.7751 41.6667 22.9028 41.3701 22.1395C41.0633 21.3503 40.653 20.6812 39.986 20.0141C39.3188 19.347 38.6496 18.9367 37.8605 18.63C37.0972 18.3333 36.2249 18.1305 34.9476 18.0722C33.6678 18.0138 33.259 18 30 18ZM30 20.1622C33.2042 20.1622 33.5837 20.1744 34.849 20.2321C36.019 20.2855 36.6544 20.481 37.0774 20.6453C37.6373 20.8629 38.0372 21.1231 38.457 21.5429C38.877 21.9628 39.1369 22.3627 39.3547 22.9227C39.5191 23.3456 39.7145 23.9811 39.7679 25.151C39.8256 26.4163 39.8378 26.7958 39.8378 30C39.8378 33.2041 39.8256 33.5836 39.7679 34.849C39.7145 36.019 39.5191 36.6544 39.3547 37.0773C39.1369 37.6374 38.877 38.0371 38.457 38.4571C38.0372 38.8769 37.6373 39.1371 37.0774 39.3547C36.6544 39.519 36.019 39.7145 34.849 39.7679C33.5839 39.8256 33.2044 39.8378 30 39.8378C26.7957 39.8378 26.4161 39.8256 25.1509 39.7679C23.981 39.7145 23.3456 39.519 22.9228 39.3547C22.3626 39.1371 21.9628 38.8769 21.5429 38.4571C21.1231 38.0371 20.863 37.6374 20.6453 37.0773C20.481 36.6544 20.2855 36.019 20.2322 34.849C20.1743 33.5836 20.1621 33.2041 20.1621 30C20.1621 26.7958 20.1743 26.4163 20.2322 25.151C20.2855 23.9811 20.481 23.3456 20.6453 22.9227C20.863 22.3627 21.1231 21.9628 21.5429 21.5429C21.9628 21.1231 22.3626 20.8629 22.9228 20.6453C23.3456 20.481 23.981 20.2855 25.1509 20.2321C26.4163 20.1744 26.7959 20.1622 30 20.1622Z" fill="white"/>
</mask>
<g mask="url(#mask0_0_19)">
<rect x="18" y="18" width="24" height="24" fill="black"/>
</g>
</svg>
