<svg width="60" height="60" viewBox="0 0 60 60" fill="none" xmlns="http://www.w3.org/2000/svg">
<circle cx="30" cy="30" r="30" fill="white"/>
<path fill-rule="evenodd" clip-rule="evenodd" d="M25.548 40.3077C34.6044 40.3077 39.558 32.4939 39.558 25.7185C39.558 25.496 39.558 25.2749 39.5436 25.0549C40.5072 24.3302 41.3388 23.4304 42 22.4007C41.1024 22.8156 40.1484 23.088 39.1728 23.208C40.2 22.5669 40.9692 21.5598 41.3376 20.3714C40.3704 20.9687 39.3132 21.3898 38.2104 21.616C36.3456 19.5516 33.2268 19.4517 31.2432 21.3936C29.9652 22.6457 29.4216 24.5126 29.8188 26.2933C25.86 26.0859 22.1712 24.139 19.6704 20.9362C18.3636 23.2792 19.032 26.2758 21.1956 27.7803C20.412 27.7566 19.6452 27.5367 18.96 27.1393V27.2043C18.9612 29.6448 20.6136 31.7466 22.9104 32.2302C22.1856 32.4364 21.4248 32.4664 20.688 32.3177C21.3324 34.407 23.1816 35.8378 25.2876 35.8791C23.544 37.3061 21.39 38.0809 19.1724 38.0784C18.7812 38.0771 18.39 38.0534 18 38.0047C20.2524 39.5092 22.872 40.3077 25.548 40.3039" fill="#DBDBDB"/>
<mask id="mask0_0_16" style="mask-type:luminance" maskUnits="userSpaceOnUse" x="18" y="20" width="24" height="21">
<path fill-rule="evenodd" clip-rule="evenodd" d="M25.548 40.3077C34.6044 40.3077 39.558 32.4939 39.558 25.7185C39.558 25.496 39.558 25.2749 39.5436 25.0549C40.5072 24.3302 41.3388 23.4304 42 22.4007C41.1024 22.8156 40.1484 23.088 39.1728 23.208C40.2 22.5669 40.9692 21.5598 41.3376 20.3714C40.3704 20.9687 39.3132 21.3898 38.2104 21.616C36.3456 19.5516 33.2268 19.4517 31.2432 21.3936C29.9652 22.6457 29.4216 24.5126 29.8188 26.2933C25.86 26.0859 22.1712 24.139 19.6704 20.9362C18.3636 23.2792 19.032 26.2758 21.1956 27.7803C20.412 27.7566 19.6452 27.5367 18.96 27.1393V27.2043C18.9612 29.6448 20.6136 31.7466 22.9104 32.2302C22.1856 32.4364 21.4248 32.4664 20.688 32.3177C21.3324 34.407 23.1816 35.8378 25.2876 35.8791C23.544 37.3061 21.39 38.0809 19.1724 38.0784C18.7812 38.0771 18.39 38.0534 18 38.0047C20.2524 39.5092 22.872 40.3077 25.548 40.3039" fill="white"/>
</mask>
<g mask="url(#mask0_0_16)">
<rect x="18" y="20" width="24" height="20.3077" fill="black"/>
</g>
</svg>
